<?xml version="1.0" encoding="iso-8859-1"?>
<svg version="1.1" id="Capa_1" xmlns="http://www.w3.org/2000/svg" xmlns:xlink="http://www.w3.org/1999/xlink" x="0px" y="0px" viewBox="0 0 297.272 297.272" style="enable-background:new 0 0 297.272 297.272;" xml:space="preserve">
    <g fill="#808282">
        <path  d="M13.66,155.132h123.952c0.641,0,1.16-0.519,1.16-1.16c0-34.873-28.265-63.133-63.139-63.133
		c-34.864,0-63.133,28.26-63.133,63.133C12.5,154.614,13.019,155.132,13.66,155.132z M32.211,132.256
		c7.021-16.626,23.23-27.369,41.296-27.369c4.143,0,7.5,3.357,7.5,7.5s-3.357,7.5-7.5,7.5c-12.022,0-22.808,7.146-27.477,18.205
		c-1.209,2.863-3.988,4.584-6.912,4.584c-0.974,0-1.962-0.19-2.915-0.593C32.387,140.472,30.6,136.073,32.211,132.256z" />
        <path d="M138.771,166.176H12.5c-6.903,0-12.5,5.597-12.5,12.5c0,6.903,5.597,12.5,12.5,12.5h50.633v39.413H43.847
		c-5.522,0-10,4.478-10,10c0,5.522,4.478,10,10,10h19.286v10.238c0,6.903,5.597,12.5,12.5,12.5c6.903,0,12.5-5.597,12.5-12.5
		v-10.238h19.292c5.522,0,10-4.478,10-10c0-5.522-4.478-10-10-10H88.133v-39.413h50.639c6.903,0,12.5-5.597,12.5-12.5
		C151.271,171.773,145.675,166.176,138.771,166.176z" />
        <path d="M159.66,88.237h123.952c0.641,0,1.16-0.519,1.16-1.16c0-34.873-28.265-63.133-63.139-63.133
		c-34.864,0-63.133,28.26-63.133,63.133C158.5,87.718,159.019,88.237,159.66,88.237z M178.211,65.361
		c7.02-16.626,23.23-27.369,41.296-27.369c4.143,0,7.5,3.357,7.5,7.5s-3.357,7.5-7.5,7.5c-12.023,0-22.808,7.146-27.478,18.205
		c-1.209,2.863-3.988,4.584-6.912,4.584c-0.974,0-1.962-0.19-2.915-0.593C178.387,73.576,176.6,69.177,178.211,65.361z" />
        <path d="M284.772,99.281H158.5c-6.903,0-12.5,5.597-12.5,12.5c0,6.903,5.597,12.5,12.5,12.5h50.633v39.413h-19.286
		c-5.522,0-10,4.478-10,10c0,5.523,4.478,10,10,10h19.286v10.238c0,6.903,5.597,12.5,12.5,12.5c6.903,0,12.5-5.597,12.5-12.5
		v-10.238h19.292c5.522,0,10-4.477,10-10c0-5.522-4.478-10-10-10h-19.292v-39.413h50.639c6.903,0,12.5-5.597,12.5-12.5
		C297.272,104.877,291.675,99.281,284.772,99.281z" />
    </g>
    <g></g>
    <g></g>
    <g></g>
    <g></g>
    <g></g>
    <g></g>
    <g></g>
    <g></g>
    <g></g>
    <g></g>
    <g></g>
    <g></g>
    <g></g>
    <g></g>
    <g></g>
</svg>
